<?xml version="1.0" encoding="utf-8"?>
<!-- Generator: Adobe Illustrator 16.0.0, SVG Export Plug-In . SVG Version: 6.00 Build 0)  -->
<!DOCTYPE svg PUBLIC "-//W3C//DTD SVG 1.1//EN" "http://www.w3.org/Graphics/SVG/1.1/DTD/svg11.dtd">
<svg version="1.1" xmlns="http://www.w3.org/2000/svg" xmlns:xlink="http://www.w3.org/1999/xlink" x="0px" y="0px" width="1368px"
	 height="459px" viewBox="0 0 1368 459" enable-background="new 0 0 1368 459" xml:space="preserve">
<g id="Layer_1">
	<g id="XMLID_1_">
		<g>
			<polygon fill="#486FB5" points="215.5,288.5 215.5,360 144,459 143.5,459 143.5,360 215.5,288 			"/>
			<polygon fill="#4990B7" points="215.5,0.5 215.5,288 143.5,360 143.5,72 144,72 			"/>
			<polygon fill="#4A4ABA" points="143.5,360 143.5,459 143,459 0,396 -0.5,396 -0.5,297 0,297 143,360 			"/>
		</g>
		<g>
		</g>
	</g>
	<g id="XMLID_2_">
		<g>
			<polygon fill="#A04CCC" points="495,378 504,459 342,315 340.64,314.91 342.44,287.32 377.09,233.42 378,234 			"/>
			<polygon fill="#7C4ACC" points="504,36 377.09,233.42 342.44,287.32 350.03,170.94 351,171 432,45 			"/>
			<polygon fill="#4F49CE" points="342.44,287.32 340.64,314.91 333,432 287.5,360 287.5,0 360,18 350.03,170.94 			"/>
		</g>
		<g>
		</g>
	</g>
	<g id="XMLID_3_">
		<g>
			<polygon fill="#B54568" points="765,0 720,117 629.73,170.86 575.5,144 			"/>
			<polygon fill="#ED5C58" points="737.87,180.22 737.5,180 720,117 765,0 772.6,121.6 660.07,314.73 659.71,314.41 			"/>
			<polygon fill="#E57C7C" points="772.6,121.6 792,432 660.07,314.73 			"/>
			<polygon fill="#C66AB9" points="629.5,287.56 630,288 659.71,314.41 575.5,459 575.5,240 576,240 			"/>
			<polygon fill="#C46A95" points="629.73,170.86 629.5,171 629.5,287.56 576,240 575.5,240 575.5,144 			"/>
		</g>
		<g>
		</g>
	</g>
	<g id="XMLID_4_">
		<g>
			<polygon fill="#BC5D53" points="935.45,284.33 864,198 863.5,198 863.5,0 864,0 982.33,195.03 935.5,284.24 			"/>
			<polygon fill="#CC8232" points="1079.5,355.18 1079.5,458.4 935.5,284.4 935.5,284.24 982.33,195.03 			"/>
			<polygon fill="#BF527F" points="864,198 935.45,284.33 935.5,284.4 935.5,405 935.64,405.22 863.5,450 863.5,198 			"/>
			<polygon fill="#CC8232" points="935.5,284.24 935.5,284.4 935.45,284.33 			"/>
			<polygon fill="#CCCC33" points="1079.5,9.95 1079.5,355.18 982.33,195.03 			"/>
		</g>
		<g>
		</g>
	</g>
	<g id="XMLID_5_">
		<g>
			<polygon fill="#48C18A" points="1223.5,333 1223.5,440.86 1152,432 1151.5,432 1151.5,144 1151.64,144.22 1223.5,261 			"/>
			<polygon fill="#68E82D" points="1367.5,0.33 1367.5,72 1224,261 1223.5,261 1151.64,144.22 1152,144 			"/>
			<polygon fill="#49B7BF" points="1295.5,359.91 1368,387 1368.5,387 1368.5,458.81 1223.5,440.86 1223.5,333 			"/>
			<polygon fill="#4A9FBC" points="1368.5,144 1368.5,387 1368,387 1295.5,359.91 1295.5,243 1296,243 			"/>
		</g>
		<g>
		</g>
	</g>
</g>
<g id="Layer_2">
</g>
</svg>
